<svg xmlns="http://www.w3.org/2000/svg" width="62" height="32">
  <g fill="#fff">
    <path d="M53 21H1V1h52v20z"/>
    <path d="M2 2v18h50V2H2M0 0h54v22H0V0z" fill="#2ed573"/>
  </g>
  <path d="M24.622 4h1.381v3.583l4.2-1.521v1.1l-4.2 1.521v.594l2.272-.8 1.923-.717v1.049q0 .07-.035.07l-4.038 1.449a1.143 1.143 0 0 0-.122.07v5.926a5.322 5.322 0 0 0 2.814-1.206 5.3 5.3 0 0 0 1.8-2.744 6.045 6.045 0 0 0 .192-1.5h1.4a6.57 6.57 0 0 1-.822 3.2 6.213 6.213 0 0 1-1.574 1.987 6.673 6.673 0 0 1-2.08 1.259 6.58 6.58 0 0 1-3.111.4v-6.829l-.227.087-2.395.857v-1.1l2.622-.944v-.612q-.192.087-.516.21a3.7 3.7 0 0 1-.411.14l-1.381.507-.114.035q-.114.035-.2.052v-1.1l2.622-.932V4z" fill="#2ed573"/>
  <g fill="#fff">
    <path d="M57 26H5V6h52v20z"/>
    <path d="M6 7v18h50V7H6M4 5h54v22H4V5z" fill="#2ed573"/>
  </g>
  <path d="M28.622 9h1.381v3.583l4.2-1.521v1.1l-4.2 1.521v.594l2.272-.8 1.923-.717v1.049q0 .07-.035.07l-4.038 1.449a1.143 1.143 0 0 0-.122.07v5.926a5.322 5.322 0 0 0 2.814-1.206 5.3 5.3 0 0 0 1.8-2.744 6.045 6.045 0 0 0 .192-1.5h1.4a6.57 6.57 0 0 1-.822 3.2 6.213 6.213 0 0 1-1.574 1.987 6.673 6.673 0 0 1-2.08 1.259 6.58 6.58 0 0 1-3.111.4v-6.829l-.227.087-2.395.857v-1.1l2.622-.944v-.612q-.192.087-.516.21a3.7 3.7 0 0 1-.411.14l-1.381.507-.114.035q-.114.035-.2.052v-1.1l2.622-.932V9z" fill="#2ed573"/>
  <g>
    <g fill="#fff">
      <path d="M61 31H9V11h52v20z"/>
      <path d="M10 12v18h50V12H10m-2-2h54v22H8V10z" fill="#2ed573"/>
    </g>
    <path d="M32.622 14h1.381v3.583l4.2-1.521v1.1l-4.2 1.521v.594l2.272-.8 1.923-.717v1.049q0 .07-.035.07l-4.038 1.449a1.143 1.143 0 0 0-.122.07v5.926a5.322 5.322 0 0 0 2.814-1.206 5.3 5.3 0 0 0 1.8-2.744 6.045 6.045 0 0 0 .192-1.5h1.4a6.57 6.57 0 0 1-.822 3.2 6.213 6.213 0 0 1-1.574 1.987 6.673 6.673 0 0 1-2.08 1.259 6.58 6.58 0 0 1-3.111.4v-6.829l-.227.087-2.395.857v-1.1l2.622-.944v-.612q-.192.087-.516.21a3.7 3.7 0 0 1-.411.14l-1.381.507-.114.035q-.114.035-.2.052v-1.1l2.622-.932V14z" fill="#2ed573"/>
  </g>
</svg>