<svg xmlns="http://www.w3.org/2000/svg" width="6.781" height="9.142" viewBox="0 0 6.781 9.142"><path d="M2.966,9.309h.917v2.38l2.787-1.01v.732l-2.787,1.01v.395l1.509-.534,1.277-.476v.7q0,.046-.023.046l-2.682.964a.759.759,0,0,0-.081.046V17.5a3.535,3.535,0,0,0,1.869-.8,3.518,3.518,0,0,0,1.2-1.823,4.015,4.015,0,0,0,.128-1H8A4.365,4.365,0,0,1,7.459,16a4.127,4.127,0,0,1-1.045,1.324,4.432,4.432,0,0,1-1.382.836,4.371,4.371,0,0,1-2.067.267v-4.54l-.151.058-1.591.569V13.78l1.742-.627v-.406q-.128.058-.343.139a2.457,2.457,0,0,1-.273.093l-.917.337-.075.023q-.075.023-.134.035v-.732l1.742-.615V9.309Z" transform="translate(-1.224 -9.309)" fill="#ff4757"/></svg>